/* XPM */
static char *result[] = {
/* columns rows colors chars-per-pixel */
"32 32 5 1 ",
"  c black",
". c #DF873A",
"X c #F6BE54",
"o c #FCE5A8",
"O c None",
/* pixels */
"OOOOOOOOOOOOOOOOOOOOOOOOOOOOOOOO",
"OOOOOOOOOOOOOOOOOOOOOOOOOOOOOOOO",
"OOOOOOOOOOOOOOOOOOOOOOOOOOOOOOOO",
"OOOOOOOOOOOOOOOOOOOOOOOOOOOOOOOO",
"OOOOOOOOOOOOOOOOOOOOOOOOOOOOOOOO",
"OOOOOOOOOOOOOOOOOOOOOOOOOOOOOOOO",
"OOOOOOOOOOOOOOOOOOOOOOOOOOOOOOOO",
"OOOOOOOOOOOOOOOOOOOOOOOOOOOOOOOO",
"OOOOOOOOOOOOOOOOOOOOOOOOOOOOOOOO",
"OOOOOOOOOOOOOOOOOOOOOOOOOOOOOOOO",
"OOOOOOOOOOOOOOOOOOOOOOOOOOOOOOOO",
"OOOOOOOOOOOOOOOOOOOOOOOOOOOOOOOO",
"OOOOOOOOOOOOOOOOOOOOOOOOOOOOOOOO",
"OOOOOOOOOOOOOOOOOOOOOOOOOOOOOOOO",
"OOOOOOOOOO           OOOOOOOOOOO",
"OOOOOOOOOO ooooooooo OOOOOOOOOOO",
"OOOOOOOOOO oooooXX.X OOOOOOOOOOO",
"OOOOOOOOOO ooooXXX.X OOOOOOOOOOO",
"OOOOOOOOOO XoooXXX.X OOOOOOOOOOO",
"OOOOOOOOOO XoooXXX.X OOOOOOOOOOO",
"OOOOOOOOOO XXoXXX... OOOOOOOOOOO",
"OOOOOOOOOOO XX..... OOOOOOOOOOOO",
"OOOOOOOOOOOO  X..  OOOOOOOOOOOOO",
"OOOOOOOOOOOOOO . OOOOOOOOOOOOOOO",
"OOOOOOOOOOOOOO X OOOOOOOOOOOOOOO",
"OOOOOOOOOOOOOO X OOOOOOOOOOOOOOO",
"OOOOOOOOOOOOOO o OOOOOOOOOOOOOOO",
"OOOOOOOOOOOOOO X OOOOOOOOOOOOOOO",
"OOOOOOOOOOOOO oX. OOOOOOOOOOOOOO",
"OOOOOOOOOOOOO oo. OOOOOOOOOOOOOO",
"OOOOOOOOOOOO ooo.X OOOOOOOOOOOOO",
"OOOOOOOOOOO oXXXX.X OOOOOOOOOOOO"
};
