/* XPM */
static char *_585e89f1d32421abff917ab86b95563iuAl31NT6X0f2wOu[] = {
/* columns rows colors chars-per-pixel */
"32 32 9 1 ",
"  c None",
". c black",
"X c #442841",
"o c #4F2E4B",
"O c #60375B",
"+ c #7F707E",
"@ c #978195",
"# c #CBCACD",
"$ c white",
/* pixels */
"      ...              ...      ",
"     .###..          ..###.     ",
"    .######.        .######.    ",
"    .#...###.      .###...#.    ",
"    .#.@@###........###@@.#.    ",
"    .##.####.OOOOOO.####.##.    ",
"    .@##....OOOOOOOO....##@.    ",
"    .+@@@@OOOOOOOOOOOO@@@@+.    ",
"     .++++X$OOOOOOOO$X++++.     ",
"      ..+.o$$$$OO$$$$o.+..      ",
"        .oo$..$OO$..$oo.        ",
"        .ooX$$$OO$$$Xoo.        ",
"         .oOoooOOoooOo.         ",
"         .XoOOOOOOOOoX.         ",
"         .XooOOOOOOooX.         ",
"         ..Xoo.OO.ooX..         ",
"     ....XX.XXooooXX.XX....     ",
"    .OooooXX..XXXX..XXooooO.    ",
"   .OoXXX.oXXX....XXXo.XXXoO.   ",
"  .OoX...XoooXXXXXXoooX...XoO.  ",
" .OoX.  .XooOoXXXXoOooX.  .XoO. ",
"  .XX.  .XoOOOooooOOOoX.  .XX.  ",
"   ..   .XoOOOOOOOOOOoX.   ..   ",
"        .XoOOOOOOOOOOoX.        ",
"        .XXoOOOOOOOOoXX.        ",
"         .XXooooooooXX.         ",
"          .XXXXXXXXXX.          ",
"          .X........X.          ",
"          .X.      .X.          ",
"        ..oX.      .Xo..        ",
"       .XXXXX.    .XXXXX.       ",
"      .......      .......      "
};
