/* XPM */
static char *result[] = {
/* columns rows colors chars-per-pixel */
"32 32 10 1 ",
"  c black",
". c #462F29",
"X c #764223",
"o c #474B6C",
"O c #6F757F",
"+ c #94552E",
"@ c #B16630",
"# c #A1AAB8",
"$ c #D0D1D3",
"% c None",
/* pixels */
"%%%%%%                    %%%%%%",
"%%%%% @.@@@.@@.@@@.@@@ @ @ %%%%%",
"%%%% @@.+@+.@@.@+@.@++ ++ + %%%%",
"%%% @+.@++.+++.++++.++X + XX %%%",
"%%% @+.@++.+@+.++@+.X+X XX . %%%",
"%% OOOOOOOOOOOOOOOOOOOOOOOOOO %%",
"%% $$$$$$$$$$$$$$$$$$$$$$$#$$ %%",
"% $$#$$$#$$$$##$$$########O### %",
"% $$#$$##$##########OOOOOOOOOO %",
"%% oooooooooooooooooooooooooo %%",
"% +XX XXX XXXX XXXXX XXX X. .. %",
"% @++.+++.@+++.+++@X X+X +X .. %",
"% @+.++++.@+X+.++++X.X++ +XX . %",
"% @+.++@X.++X+.@++++.+X+ +X. . %",
"% @+.+++X.++++.@X+++.+X+ XX. . %",
"% @+.++++.++++.+X+++.+X+ XXX . %",
"% @+.++++.++++.+++++.++X XXX . %",
"% @+.@+++.++++.+++++.++X XXX . %",
"% @+.@X++.++++.+++X+.++X XX. . %",
"% @+.+X++.++X+.++@X+.+++ XX. . %",
"% @++.+++.++X@.++@++ +X+ +X .. %",
"% @++.+++.+++@.+++++ +X+ +X .. %",
"%% OOOOOOOOOOOOOOOOOOOOOOOOOO %%",
"% $$$$$$$$$$$$$$$$$$$#$$$$$#$$ %",
"% $$$#$$#$$$$$#######OO####O## %",
"%% $############OOOOOOOOOOOOO %%",
"%% oooooooooooooooooooooooooo %%",
"%%% XX XXX XXX XXXX XXX .. . %%%",
"%%% ++.+X+.X++.+X+X X++ X .. %%%",
"%%%% ++.X+X.+X.+X+ ++X XX . %%%%",
"%%%%% X +XX XX XXX +XX . . %%%%%",
"%%%%%% . .. .. ... .. . . %%%%%%"
};
